<svg width="500" height="394" fill="none" viewBox="0 0 500 394" class="css-erea8p">
<g clip-path="url(#pessoa-computador_svg__clip0)">
<path d="M86.788 352.341l52.897 178.508a18.656 18.656 0 0017.895 13.361l214.582.587c11.397.041 20.466-9.514 19.859-20.891-.567-10.527-9.271-18.786-19.818-18.786h-82.068l-65.711-183.104H109.42c-15.77.021-27.106 15.203-22.632 30.325z" fill="#3C3C42">
</path>
<path d="M102.581 327.704c.405-.141 15 42.613 32.633 95.449 17.632 52.856 31.6 95.813 31.195 95.934-.405.142-15.001-42.592-32.633-95.469-17.632-52.815-31.6-95.772-31.195-95.914z" fill="#29292E">
</path>
<path d="M161.224 281.104l20.142 100.631-3.603 75.407 135.389-22.511-5.304-66.034-.101-54.638 33.199 64.334 25.851-49.921-47.329-85.731c-8.664-8.988-18.827-15.648-30.973-20.041-5.891-2.126-12.166-3.401-19.413-3.725-15.629 4.838-31.236 4.838-46.864.02-1.903.243-4.535.486-7.875.891-.203.02-.405.04-.607.081-28.726 3.502-50.67 27.389-52.249 56.297l-.263 4.94z" fill="#8257E6">
</path>
<path d="M214.343 219.786s-55.63.425-62.512 59.172l-.932 43.079 47.917-.405 15.527-101.846z" fill="#8257E6">
</path>
<path d="M307.017 378.273c-.426 0-.223-23.827.404-53.18.648-29.373 1.519-53.16 1.924-53.139.425 0 .222 23.806-.405 53.18-.648 29.353-1.498 53.159-1.923 53.139z" fill="#6040A8">
</path>
<path d="M287.987 339.669s26.317 1.882 31.054 8.846c4.737 6.964 11.963 26.803 9.21 26.944-2.733.142-4.716-1.498-4.716-1.498l-7.207-12.773s1.154 12.348-3.158 12.591c-4.312.243-25.669 4.514-25.669 4.514l.486-38.624z" fill="#FFBE9D">
</path>
<path d="M150.92 310.558l-.102 67.836c.851 15.851 15.709 27.167 31.216 23.787l106.097-21.863-.223-43.504-91.542 17.571-1.214-46.054-44.232 2.227z" fill="#8257E6">
</path>
<path d="M211.448 396.756c0-.041.466-.162 1.397-.385 1.033-.243 2.409-.547 4.11-.931 3.725-.79 8.988-1.903 15.587-3.3 13.543-2.773 32.593-6.66 55.225-11.296l-.547.668c-.02-13.664-.04-28.746-.081-44.677l.891.728c-5.972 1.154-12.268 2.349-18.644 3.583-26.823 5.102-51.864 9.879-72.918 13.867l-.789.142.02-.79c.688-20.182 1.275-37.005 1.68-48.928.243-5.79.425-10.385.567-13.665.081-1.498.142-2.672.202-3.583.061-.81.102-1.235.142-1.235.041 0 .061.425.061 1.235v3.604c-.061 3.279-.122 7.874-.223 13.664-.283 11.903-.668 28.726-1.133 48.908l-.77-.647c21.033-4.069 46.075-8.907 72.857-14.09 6.397-1.214 12.673-2.429 18.644-3.563l.891-.162v.911c-.02 15.932-.061 31.034-.081 44.678v.567l-.546.101a88033.328 88033.328 0 01-55.326 10.749 5137.515 5137.515 0 00-15.669 2.936c-1.72.303-3.097.546-4.15.728-.911.162-1.397.223-1.397.183z" fill="#6040A8">
</path>
<path d="M256.006 394.124l205.776 1.984 38.382-108.466-149.681 1.013-34.738 97.533-59.739.891v7.045z" fill="#3C3C42">
</path>
<path fill-rule="evenodd" clip-rule="evenodd" d="M423.388 326.054l-4.973-.745a.424.424 0 00-.353.089l-2.119 2.802a.687.687 0 00-.117.625c.059.209-.118.388-.324.358l-1.736-.387a.716.716 0 00-.736.268l-6.885 8.94a.448.448 0 01-.559.149l-2.618-1.192a.673.673 0 00-.707.06l-1.324.923a.723.723 0 01-.735.06l-.648-.328a.732.732 0 00-1.029.477l-.471 2.116a1.166 1.166 0 00.53 1.281l1 .626 3.207 1.997 1.56.983c.441.269 1 .209 1.382-.119l2.619-2.324c.206-.179.53-.239.765-.09l.795.417a.66.66 0 00.794-.119l1.324-1.251a.67.67 0 01.765-.12l1.971.924c.295.149.648.06.854-.208l.912-1.192 6.914-8.971a.73.73 0 00-.412-1.162l-1.53-.357c-.323-.06-.47-.477-.235-.716l2.383-3.01c.236-.357.089-.745-.264-.804zm-23.648 17.868c-.171-.089-.343.059-.274.207l.857 1.952a.666.666 0 01.034.443l-.754 2.544a.43.43 0 00.171.444l2.16 1.449c.206.118.48.118.651-.03l2.263-1.715c.137-.089.308-.148.445-.178l2.571-.236c.172-.03.24-.237.069-.325l-8.193-4.555zm-.283 7.154a.577.577 0 01.487.058l2.207 1.493a.451.451 0 01.162.345l-.195 2.182a.524.524 0 01-.162.287l-9.508 8.443c-.065.086-.194 0-.13-.086l2.629-3.82c.032-.028 0-.086-.033-.115h-.097l-.844.288c-.065 0-.097-.029-.129-.058v-.057l3.666-8.012c.065-.086.13-.172.228-.201l1.719-.747z" fill="#E1E1E6">
</path>
<path d="M239.221 100.531c1.943-7.207 7.369-10.77 14.454-13.179 7.065-2.409 15.304-1.073 21.256 3.442 3.967 3.036 7.085 7.43 11.822 9.069 7.774 2.692 16.883-3.118 24.333.364 4.413 2.065 6.984 7.45 5.81 12.167-1.174 4.737-5.972 8.279-10.831 8.036 5.081 1.863 6.661 9.09 3.685 13.604-2.956 4.514-9.049 6.215-14.353 5.223s-9.94-4.211-13.948-7.814c-4.008-3.603-7.611-7.693-11.903-10.972-4.292-3.28-9.494-5.77-14.899-5.466-7.308.385-13.564 5.891-16.823 12.45-3.259 6.539-4.008 14.029-4.413 21.337-.405 7.308-.526 14.717-2.692 21.701-.264.81-.648 1.741-1.458 1.984-1.194.364-2.186-.891-2.773-1.984a107.736 107.736 0 01-12.268-39.9c-.83-8.098-.607-15.75 3.826-22.552 4.413-6.781 15.648-11.802 21.175-7.51z" fill="#624830">
</path>
<path d="M225.093 134.419l-3.725 81.905c-.628 13.928 1.275 34.516 23.341 34.516 19.15-1.438 24.798-19.333 25.385-32.329.283-6.175.526-11.317.587-11.944 0 0 20.932-1.012 23.381-21.58 1.175-9.939 1.944-30.608 2.43-49.313.506-20.102-14.515-37.208-34.495-39.334l-1.984-.202c-21.56-1.032-34.495 16.701-34.92 38.281z" fill="#FFBE9D">
</path>
<path d="M270.742 206.283s-13.138-.324-26.033-10.486c0 0 4.777 15.507 25.527 15.831l.506-5.345z" fill="#EB996E">
</path>
<path d="M289.022 148.832c-.101 1.559-1.518 2.753-3.158 2.672-1.619-.081-2.854-1.417-2.753-2.976.101-1.559 1.519-2.753 3.158-2.672 1.64.081 2.875 1.417 2.753 2.976zM290.988 145.31c-.405.344-2.45-1.539-5.628-1.863-3.158-.364-5.648 1.013-5.952.587-.141-.182.304-.85 1.377-1.477 1.073-.628 2.854-1.154 4.818-.932 1.964.223 3.543 1.114 4.433 1.964.911.83 1.154 1.559.952 1.721zM257.87 146.605c-.101 1.559-1.518 2.753-3.158 2.673-1.619-.081-2.854-1.418-2.753-2.976.101-1.559 1.518-2.753 3.158-2.672 1.64.081 2.875 1.417 2.753 2.975zM259.813 142.577c-.405.344-2.47-1.538-5.628-1.862-3.158-.365-5.648 1.012-5.952.587-.141-.182.284-.85 1.377-1.478 1.073-.627 2.854-1.154 4.818-.951 1.964.222 3.543 1.113 4.433 1.963.891.871 1.154 1.6.952 1.741zM268.802 167.274c0-.182 2.004-.304 5.243-.385.81 0 1.599-.081 1.802-.607.242-.567 0-1.478-.284-2.449-.546-2.045-1.133-4.171-1.741-6.418-2.389-9.109-4.028-16.579-3.664-16.66.364-.101 2.612 7.227 4.98 16.336.567 2.247 1.113 4.393 1.64 6.438.202.951.627 2.044.081 3.219-.284.587-.931.951-1.458 1.032-.526.101-.992.061-1.397.04-3.198-.161-5.202-.364-5.202-.546zM263.88 176.965c.503-.032.536 3.345 3.443 5.717 2.897 2.383 6.493 1.978 6.525 2.448.044.208-.797.656-2.317.711-1.486.065-3.661-.405-5.443-1.858-1.771-1.454-2.547-3.411-2.667-4.788-.142-1.41.23-2.251.459-2.23zM261.958 130.269c-.405.83-3.523.081-7.288.142-3.765-.021-6.863.749-7.288-.081-.182-.385.425-1.154 1.721-1.843 1.296-.708 3.279-1.295 5.547-1.295 2.247 0 4.251.567 5.546 1.255 1.316.688 1.944 1.437 1.762 1.822zM290.806 136.018c-.627.668-2.733-.324-5.344-.627-2.612-.405-4.899-.041-5.324-.83-.183-.385.243-1.073 1.275-1.64s2.692-.952 4.474-.709c1.802.243 3.279 1.073 4.13 1.903.85.81 1.072 1.579.789 1.903z" fill="#29292E">
</path>
<path d="M225.154 149.845c-.344-.183-13.705-5.689-14.757 8.441-1.053 14.13 13.361 12.268 13.401 11.863.061-.405 1.356-20.304 1.356-20.304z" fill="#FFBE9D">
</path>
<path d="M219.888 164.48c-.06-.041-.263.162-.688.324-.425.162-1.133.223-1.842-.101-1.458-.668-2.53-3.118-2.409-5.669a8.3 8.3 0 01.951-3.481c.507-.992 1.235-1.681 1.984-1.762.77-.121 1.255.365 1.397.79.162.405.041.688.122.708.04.041.323-.222.242-.809a1.669 1.669 0 00-.485-.932c-.324-.303-.81-.485-1.336-.465-1.094 0-2.146.931-2.733 2.004-.648 1.073-1.073 2.429-1.154 3.866-.122 2.855 1.133 5.628 3.138 6.377.971.324 1.821.101 2.287-.202.466-.324.567-.628.526-.648z" fill="#EB996E">
</path>
<path d="M301.311 131.848c-9.333 1.457-19.272-1.923-25.791-8.766-4.555-4.777-7.773-11.296-13.846-13.907-4.09-1.741-8.887-1.336-12.976.385-4.09 1.72-7.592 4.656-10.649 7.874 2.875 10.891-1.052 22.289-4.919 32.876-.425 1.174-.931 2.429-1.984 3.077-1.801 1.113-4.19-.162-5.486-1.842-2.065-2.672-2.611-6.215-2.834-9.596-.546-7.692.101-15.526 2.571-22.834s6.842-14.049 12.956-18.746c7.632-5.89 17.693-8.28 27.268-7.106 9.575 1.175 18.564 5.77 25.588 12.349 3.259 3.057 6.174 6.64 7.591 10.891" fill="#624830">
</path>
<path d="M329.315.692c-.399-.025-.749-.05-1.055-.071-.31-.022-.575-.04-.798-.054h-.001l.004-.061h-.015l1.865.186zm0 0c.188.018.388.03.588.042l.069.004c.226.014.457.03.694.053a84.66 84.66 0 011.617.26h0l.01.002c.583.087 1.215.186 1.884.297a582.942 582.942 0 012.106.56l.023.005c1.098.235 2.227.67 3.479 1.151.429.165.872.336 1.333.505l.771.372c.61.295 1.235.596 1.873.91.439.222.87.482 1.32.762l.286.179c.355.222.723.452 1.104.673a36.87 36.87 0 0110.482 10.286c3.006 4.561 5.292 10.273 5.928 16.678.013.544.044 1.074.074 1.597.063 1.104.124 2.176.016 3.29h0l-.001.011c-.027.356-.042.693-.057 1.023-.022.5-.044.984-.104 1.487l-.048.324a163.78 163.78 0 01-.339 2.205c-.688 3.366-1.671 6.78-3.388 9.948l-.003.006c-1.681 3.204-3.832 6.267-6.49 8.957a37.344 37.344 0 01-9.329 6.767c-.341.157-.662.315-.976.47-.566.28-1.108.548-1.703.77-.577.215-1.151.424-1.73.635l-1.097.4c-.552.155-1.088.29-1.631.426a76 76 0 00-1.306.334h0l-.011.004c-.456.134-.932.215-1.434.286-.129.019-.261.037-.395.055-.372.05-.758.103-1.137.173-.18.027-.347.055-.507.082-.338.058-.645.11-.974.126l-1.549.075-.54.028c-.865.045-1.696.088-2.538.048h-.005c-2.069-.075-4.144-.299-6.178-.732h-.004a36.198 36.198 0 01-9.981-3.66l-.015-.007-.151-.075a.481.481 0 00-.429 0l-.143.071-.005.002c-3.724 1.775-7.389 3.52-10.979 5.227l.805-4.281c.499-2.662.99-5.278 1.473-7.84h0l.002-.01.025-.15a.479.479 0 00-.115-.398l-.101-.113-.001-.002c-4.041-4.503-6.8-9.836-8.154-15.24l-.001-.003c-1.391-5.402-1.368-10.859-.434-15.8a35.441 35.441 0 015.331-13.03h0c2.449-3.683 5.37-6.586 8.306-8.833l.012-.009c1.152-.94 2.373-1.68 3.566-2.405.272-.165.542-.329.809-.494.483-.274.962-.503 1.447-.736.232-.111.465-.223.702-.341.712-.355 1.359-.677 2.023-.89l.022-.007.583-.22c1.158-.44 2.206-.837 3.217-1.055l.019-.005.662-.174c.956-.255 1.799-.479 2.596-.567a.482.482 0 00.018-.002c.412-.062.794-.126 1.154-.186.544-.09 1.036-.173 1.5-.226l.871-.054c.408-.025.774-.048 1.097-.07h.002c.189-.015.364-.027.523-.038.27-.019.499-.035.691-.051h.004l.007-.001.315-.03.072-.01 2.472.18zm-2.34-1.152c-.044 0-.08.002-.108.003l-.016-.002a1.674 1.674 0 00-.108-.008l-.103-.004a16.202 16.202 0 01-.23-.009c-.285.013-.685.025-1.2.038h0-.01a152.955 152.955 0 01-2.015.077 37.22 37.22 0 00-1.725.226c-.317.046-.644.094-.98.14-.889.087-1.833.326-2.807.572l-.606.152c-1.083.22-2.186.622-3.325 1.038l-.641.233c-.74.238-1.458.577-2.173.928-.233.114-.478.23-.729.347a29.148 29.148 0 00-1.526.754c-.249.151-.503.304-.761.458-1.225.732-2.541 1.52-3.793 2.514a37.974 37.974 0 00-8.669 9.108 36.895 36.895 0 00-5.616 13.547v.001c-.994 5.138-1.034 10.814.409 16.47 1.375 5.523 4.144 10.982 8.21 15.627-.426 2.229-.856 4.498-1.292 6.801-.404 2.132-.814 4.294-1.231 6.48v.003l-.114.616a.48.48 0 00.683.519l.563-.275h.002l2.155-1.026c3.238-1.54 6.536-3.109 9.883-4.694 3.123 1.645 6.515 2.897 10.063 3.62 2.135.46 4.29.688 6.439.764.907.043 1.816-.004 2.697-.05l.52-.025h.001l1.574-.076s0 0 0 0c.293-.014.577-.055.84-.098l.197-.033a12.471 12.471 0 01.588-.09c.353-.064.703-.111 1.064-.16.156-.02.314-.042.475-.065a10.715 10.715 0 001.591-.325c.303-.08.608-.158.913-.237.699-.18 1.402-.362 2.096-.555a707.73 707.73 0 002.934-1.067l.005-.002c.668-.254 1.321-.575 1.949-.883.29-.143.576-.283.854-.412l.017-.008a39.274 39.274 0 009.73-7.074l.003-.003c2.783-2.815 5.001-6.021 6.745-9.348 1.807-3.338 2.827-6.92 3.511-10.387l.005-.024c.068-.473.139-.935.21-1.398.06-.394.121-.788.18-1.19l.002-.02c.06-.582.087-1.182.112-1.762.013-.282.025-.558.041-.827.116-1.22.038-2.453-.035-3.623a43.79 43.79 0 01-.077-1.467l-.003-.034c-.676-6.682-3.087-12.625-6.237-17.346l-.004-.005A38.362 38.362 0 00347.126 5.34c-.311-.18-.629-.376-.95-.573-.614-.377-1.241-.762-1.864-1.065h0l-.004-.002c-.846-.399-1.661-.788-2.454-1.166l-.24-.115a.567.567 0 00-.045-.018c-.425-.153-.846-.31-1.263-.466-1.291-.484-2.54-.952-3.743-1.197l-.833-.21c-.452-.115-.892-.227-1.315-.329a.5.5 0 00-.042-.008c-.389-.058-.772-.112-1.14-.164l-.787-.113a141.93 141.93 0 00-.863-.124 114.697 114.697 0 01-.822-.118c-.268-.02-.518-.03-.749-.037l-.103-.004c-.193-.006-.37-.012-.54-.022h0l-.014-.001c-.393-.012-.746-.025-1.057-.036l-.821-.027a11.504 11.504 0 00-.502-.005z" fill="#3C3C42" stroke="#3C3C42" stroke-width="0.96" stroke-linejoin="round">
</path>
<path d="M311.385 38.142l7.803 2.76v3.843l-11.787-5.01v-3.24l11.787-5.011v3.844l-7.803 2.814zM323.692 48.342h-2.943l7.338-21.704h2.943l-7.338 21.704zM341.01 38.1l-7.954-2.786v-3.817l11.924 5.011v3.227l-11.924 5.024v-3.83l7.954-2.828zM55.301 303.443c5.028-2.599 10.96-2.938 16.553-2.006 3.008.494 6.13 1.398 8.178 3.644 2.048 2.26 2.429 6.229.085 8.163-1.399 1.159-3.348 1.328-5.156 1.314-4.378-.057-9.237-.819-12.725 1.808-1.992 1.497-3.32 3.997-5.706 4.731-2.33.721-4.972-.649-6.2-2.754-1.243-2.104-1.286-4.731-.707-7.104 0 0 .608-5.169 5.678-7.796zM43.763 281.184c3.08 4.392 9.068 2.937 11.836.254 2.768-2.684 3.94-6.568 5.014-10.282 2.443-8.475 4.9-17.372 3.079-26.002-.537-2.585-1.511-5.155-3.32-7.062-1.807-1.921-4.603-3.051-7.146-2.373-3.022.791-4.887 3.757-6.242 6.568a62.169 62.169 0 00-6.13 26.595c-.014 4.265.494 8.757 2.91 12.302zM35.318 287.483c3.348-3.969 3.983-9.76 2.486-14.717-1.483-4.972-4.844-9.195-8.714-12.655a46.615 46.615 0 00-15.621-9.209c-2.26-.791-4.647-1.426-7.02-1.186-2.386.226-4.788 1.44-5.89 3.559-1.638 3.136-.07 6.935 1.64 10.042a120.455 120.455 0 0010.253 15.621c3.079 3.969 6.596 7.867 11.285 9.661 4.689 1.793 9.548 1.581 12.033-1.667" fill="#04D361">
</path>
<path d="M43.55 347.509c.057 0 .156-.706.283-1.992.142-1.454.325-3.276.537-5.451.254-2.288.593-5.028 1.229-7.994.635-2.966 1.624-6.187 2.91-9.435 1.327-3.234 2.937-6.186 4.816-8.545 1.878-2.373 4.053-4.082 6.087-5.07a17.187 17.187 0 015.127-1.596c1.271-.127 1.991-.226 1.991-.283 0-.056-.72-.07-2.02-.028-1.299.085-3.206.41-5.352 1.398-2.161.961-4.463 2.698-6.427 5.113-1.977 2.401-3.644 5.409-5 8.714-1.299 3.319-2.273 6.568-2.88 9.59-.608 3.023-.876 5.791-1.06 8.093-.17 2.317-.24 4.195-.268 5.48-.043 1.286-.029 2.006.028 2.006z" fill="#3C3C42">
</path>
<path d="M43.933 343.314c.028 0 .042-.325.056-.932v-2.655c0-2.302 0-5.636.113-9.746.198-8.22.919-17.075 2.274-29.547 1.3-11.736 3.037-25.38 4.873-34.264.395-2.019.791-3.841 1.158-5.423.353-1.596.664-2.966.947-4.082.254-1.045.452-1.907.62-2.571.128-.593.184-.904.156-.918-.028-.014-.14.297-.325.876-.197.664-.452 1.511-.762 2.542-.34 1.102-.692 2.472-1.088 4.054-.41 1.582-.847 3.404-1.285 5.409-1.808 8.051-3.743 19.293-5.113 31.793-1.37 12.499-1.991 23.883-2.048 32.131-.042 4.125.043 7.458.142 9.76.07 1.073.112 1.949.155 2.655.056.607.099.918.127.918z" fill="#3C3C42">
</path>
<path d="M43.992 321.351c.056 0 .042-.988-.014-2.768-.1-1.779-.354-4.35-.848-7.499-.537-3.15-1.271-6.879-2.443-10.932-.509-1.851-1.695-6.299-4.576-12.938-3.786-8.996-8.94-16.355-13.432-20.903-1.045-1.214-2.217-2.076-3.164-2.938-.48-.409-.918-.819-1.356-1.144a82.832 82.832 0 01-1.229-.847c-1.468-1.003-2.302-1.539-2.33-1.497-.127.184 3.305 2.203 7.641 6.822 4.322 4.604 9.336 11.906 13.093 20.832a103.17 103.17 0 014.604 12.81c1.2 4.012 1.992 7.712 2.599 10.819.565 3.122.904 5.664 1.102 7.429.169 1.78.296 2.769.353 2.754z" fill="#3C3C42">
</path>
<path d="M22.765 360.093l2.203 30.14h38.727l2.204-30.14H22.765zM70.499 348.215H19.018v11.878h51.48v-11.878z" fill="#323238">
</path>
<path d="M19.018 389.075v3.305H69.65v-3.305H19.018zM23.822 398.17l-2.373-5.79h46.368l-2.768 5.79H23.822z" fill="#3C3C42">
</path>
<path d="M65.176 369.937c.014.014-.056.099-.184.283-.155.197-.339.452-.579.762-.55.707-1.299 1.667-2.26 2.882l-.098.127-.1-.142c-1.411-1.963-3.318-4.576-5.536-7.669h.325a2008.064 2008.064 0 00-5.452 7.726l-.17.24-.197-.226c-2.02-2.401-4.195-5-6.468-7.697h.367c-.113.141-.24.296-.353.452l-5.791 7.259-.198.24-.184-.254c-1.963-2.782-3.799-5.381-5.465-7.726l.31.014c-2.683 3.065-4.971 5.664-6.723 7.656l-.113.141-.084-.156a613.367 613.367 0 01-2.105-3.53c-.226-.382-.395-.693-.536-.947a3.052 3.052 0 01-.17-.339c.014 0 .085.099.226.297.155.24.353.537.593.904.537.847 1.285 2.005 2.204 3.474l-.212-.014c1.723-2.02 3.969-4.647 6.61-7.754l.17-.198.154.212c1.681 2.331 3.531 4.929 5.509 7.684l-.367-.015c1.836-2.302 3.77-4.745 5.776-7.259.127-.156.24-.311.353-.452l.184-.226.183.226c2.26 2.712 4.45 5.31 6.455 7.711l-.367.015c1.991-2.783 3.841-5.367 5.508-7.684l.155-.226.156.226c2.189 3.122 4.04 5.763 5.423 7.754h-.197c.988-1.186 1.78-2.132 2.344-2.81.254-.297.466-.537.622-.735.183-.141.268-.226.282-.226z" fill="#E0E0E0">
</path>
<path d="M66.432 359.895c0 .128-9.703.24-21.666.24-11.977 0-21.665-.112-21.665-.24 0-.127 9.703-.24 21.665-.24 11.963 0 21.666.099 21.666.24z" fill="#3C3C42">
</path>
<path d="M68.382 392.705c0 .127-10.55.24-23.544.24-13.008 0-23.559-.113-23.559-.24s10.537-.24 23.559-.24c13.008 0 23.544.098 23.544.24z" fill="#29292E">
</path>
<path d="M363.894 163.313c0-5.839 3.071-9.313 7.303-9.313 4.232 0 7.328 3.474 7.328 9.313s-3.096 9.313-7.328 9.313-7.303-3.474-7.303-9.313zm12.696 0c0-4.898-2.2-7.576-5.393-7.576-3.192 0-5.393 2.702-5.393 7.576s2.201 7.576 5.393 7.576c3.193.024 5.393-2.678 5.393-7.576zM381.406 163.313c0-5.839 3.072-9.313 7.304-9.313s7.328 3.474 7.328 9.313-3.096 9.313-7.328 9.313-7.304-3.474-7.304-9.313zm12.721 0c0-4.898-2.201-7.576-5.393-7.576-3.192 0-5.393 2.702-5.393 7.576s2.201 7.576 5.393 7.576c3.192.024 5.393-2.678 5.393-7.576zM403.781 154.17v18.289h-1.887v-16.624h-4.329v-1.665h6.216zM408.152 163.313c0-5.839 3.072-9.313 7.304-9.313s7.328 3.474 7.328 9.313-3.096 9.313-7.328 9.313-7.304-3.474-7.304-9.313zm12.721 0c0-4.898-2.2-7.576-5.393-7.576-3.192 0-5.393 2.702-5.393 7.576s2.201 7.576 5.393 7.576c3.193.024 5.393-2.678 5.393-7.576zM430.55 154.17v18.289h-1.886v-16.624h-4.329v-1.665h6.215zM346 189.3c0-5.839 3.071-9.314 7.304-9.314 4.232 0 7.328 3.475 7.328 9.314 0 5.838-3.096 9.313-7.328 9.313-4.233 0-7.304-3.499-7.304-9.313zm12.697 0c0-4.898-2.201-7.576-5.393-7.576-3.193 0-5.393 2.702-5.393 7.576 0 4.897 2.2 7.576 5.393 7.576 3.192 0 5.393-2.703 5.393-7.576zM363.337 189.296c0-5.838 3.071-9.313 7.304-9.313 4.232 0 7.327 3.475 7.327 9.313 0 5.839-3.095 9.314-7.327 9.314-4.233 0-7.304-3.499-7.304-9.314zm12.721 0c0-4.897-2.201-7.576-5.393-7.576-3.193 0-5.393 2.703-5.393 7.576 0 4.898 2.2 7.576 5.393 7.576 3.192 0 5.393-2.702 5.393-7.576zM385.733 180.153v18.289h-1.886v-16.624h-4.329v-1.665h6.215zM390.108 189.296c0-5.838 3.072-9.313 7.304-9.313s7.328 3.475 7.328 9.313c0 5.839-3.096 9.314-7.328 9.314s-7.304-3.499-7.304-9.314zm12.697 0c0-4.897-2.201-7.576-5.393-7.576-3.192 0-5.393 2.703-5.393 7.576 0 4.898 2.201 7.576 5.393 7.576 3.192 0 5.393-2.702 5.393-7.576zM412.481 180.153v18.289h-1.886v-16.624h-4.329v-1.665h6.215zM421.936 180.153v18.289h-1.886v-16.624h-4.329v-1.665h6.215zM426.313 189.296c0-5.838 3.072-9.313 7.304-9.313s7.328 3.475 7.328 9.313c0 5.839-3.096 9.314-7.328 9.314s-7.304-3.499-7.304-9.314zm12.697 0c0-4.897-2.201-7.576-5.393-7.576-3.192 0-5.393 2.703-5.393 7.576 0 4.898 2.201 7.576 5.393 7.576 3.192 0 5.393-2.702 5.393-7.576zM448.685 180.153v18.289h-1.886v-16.624h-4.329v-1.665h6.215zM364.068 214.413c0-5.838 3.072-9.313 7.304-9.313s7.328 3.475 7.328 9.313c0 5.839-3.096 9.314-7.328 9.314s-7.304-3.499-7.304-9.314zm12.697 0c0-4.897-2.201-7.576-5.393-7.576-3.192 0-5.393 2.703-5.393 7.576 0 4.874 2.201 7.576 5.393 7.576 3.192 0 5.393-2.702 5.393-7.576zM386.439 205.27v18.289h-1.886v-16.624h-4.329v-1.665h6.215zM395.895 205.27v18.289h-1.886v-16.624h-4.329v-1.665h6.215zM405.352 205.27v18.289h-1.886v-16.624h-4.329v-1.665h6.215zM409.754 214.414c0-5.839 3.071-9.313 7.304-9.313 4.232 0 7.327 3.474 7.327 9.313s-3.095 9.313-7.327 9.313c-4.233 0-7.304-3.499-7.304-9.313zm12.697 0c0-4.898-2.201-7.576-5.393-7.576-3.193 0-5.394 2.702-5.394 7.576s2.201 7.576 5.394 7.576c3.192 0 5.393-2.702 5.393-7.576zM432.124 205.27v18.289h-1.887v-16.624h-4.329v-1.665h6.216z" fill="#8257E6">
</path>
<path d="M107.097 151.236c0-3.904 2.054-6.235 4.901-6.235s4.912 2.331 4.912 6.235c0 3.903-2.076 6.234-4.912 6.234-2.847 0-4.901-2.331-4.901-6.234zm8.52 0c0-3.275-1.478-5.085-3.619-5.085s-3.619 1.799-3.619 5.085c0 3.274 1.478 5.084 3.619 5.084s3.619-1.81 3.619-5.084zM118.712 151.234c0-3.903 2.054-6.234 4.901-6.234s4.912 2.331 4.912 6.234-2.075 6.234-4.912 6.234c-2.847 0-4.901-2.331-4.901-6.234zm8.52 0c0-3.274-1.478-5.085-3.619-5.085s-3.619 1.8-3.619 5.085c0 3.274 1.478 5.085 3.619 5.085s3.619-1.811 3.619-5.085zM133.708 145.097v12.273h-1.26v-11.145h-2.902v-1.117h4.162v-.011zM136.634 151.234c0-3.903 2.054-6.234 4.901-6.234s4.912 2.331 4.912 6.234-2.076 6.234-4.912 6.234c-2.847 0-4.901-2.331-4.901-6.234zm8.52 0c0-3.274-1.478-5.085-3.619-5.085s-3.619 1.8-3.619 5.085c0 3.274 1.478 5.085 3.619 5.085s3.619-1.811 3.619-5.085zM151.63 145.097v12.273h-1.261v-11.145h-2.901v-1.117h4.162v-.011zM95 168.637c0-3.903 2.054-6.234 4.901-6.234 2.848 0 4.912 2.331 4.912 6.234s-2.075 6.234-4.912 6.234c-2.847 0-4.901-2.331-4.901-6.234zm8.52 0c0-3.274-1.478-5.085-3.619-5.085-2.14 0-3.619 1.8-3.619 5.085 0 3.274 1.478 5.085 3.62 5.085 2.14-.011 3.618-1.811 3.618-5.085zM106.621 168.636c0-3.903 2.054-6.234 4.901-6.234 2.848 0 4.912 2.331 4.912 6.234s-2.075 6.234-4.912 6.234c-2.847 0-4.901-2.331-4.901-6.234zm8.52 0c0-3.274-1.478-5.085-3.619-5.085s-3.619 1.8-3.619 5.085c0 3.274 1.478 5.085 3.619 5.085s3.619-1.811 3.619-5.085zM121.617 162.499v12.262h-1.26v-11.145h-2.902v-1.117h4.162zM124.543 168.636c0-3.903 2.054-6.234 4.901-6.234 2.848 0 4.912 2.331 4.912 6.234s-2.075 6.234-4.912 6.234c-2.847 0-4.901-2.331-4.901-6.234zm8.52 0c0-3.274-1.478-5.085-3.619-5.085s-3.619 1.8-3.619 5.085c0 3.274 1.478 5.085 3.619 5.085 2.141-.011 3.619-1.811 3.619-5.085zM139.538 162.499v12.262h-1.26v-11.145h-2.902v-1.117h4.162zM145.874 162.499v12.262h-1.26v-11.145h-2.902v-1.117h4.162zM148.797 168.636c0-3.903 2.054-6.234 4.901-6.234s4.912 2.331 4.912 6.234-2.075 6.234-4.912 6.234c-2.847 0-4.901-2.331-4.901-6.234zm8.52 0c0-3.274-1.478-5.085-3.619-5.085s-3.619 1.8-3.619 5.085c0 3.274 1.478 5.085 3.619 5.085 2.141-.011 3.619-1.811 3.619-5.085zM163.793 162.499v12.262h-1.261v-11.145h-2.901v-1.117h4.162zM107.097 185.45c0-3.903 2.054-6.234 4.901-6.234s4.912 2.331 4.912 6.234-2.076 6.234-4.912 6.234c-2.847.011-4.901-2.32-4.901-6.234zm8.52 0c0-3.274-1.478-5.085-3.619-5.085s-3.619 1.8-3.619 5.085c0 3.274 1.478 5.085 3.619 5.085s3.619-1.811 3.619-5.085zM122.091 179.322v12.263h-1.261v-11.146h-2.901v-1.117h4.162zM128.428 179.322v12.263h-1.261v-11.146h-2.901v-1.117h4.162zM134.763 179.322v12.263h-1.261v-11.146h-2.901v-1.117h4.162zM137.688 185.449c0-3.903 2.053-6.235 4.901-6.235 2.847 0 4.912 2.332 4.912 6.235 0 3.903-2.076 6.234-4.912 6.234-2.837.011-4.901-2.32-4.901-6.234zm8.52 0c0-3.275-1.478-5.085-3.619-5.085s-3.619 1.799-3.619 5.085c0 3.274 1.478 5.084 3.619 5.084 2.152 0 3.619-1.81 3.619-5.084zM152.684 179.322v12.263h-1.261v-11.146h-2.902v-1.117h4.163z" fill="#737380">
</path>
</g>
<defs>
<clipPath id="pessoa-computador_svg__clip0">
<path fill="#fff" d="M0 0h500v394H0z">
</path>
</clipPath>
</defs>
</svg>